<svg width="40" height="48" viewBox="0 0 40 48" fill="none" xmlns="http://www.w3.org/2000/svg">
<path d="M34.1422 33.941L20 48L5.85778 33.941C3.06076 31.1604 1.15597 27.6178 0.384285 23.761C-0.387399 19.9042 0.00868188 15.9066 1.52244 12.2736C3.0362 8.64059 5.59965 5.53543 8.88863 3.35075C12.1776 1.16607 16.0444 0 20 0C23.9556 0 27.8224 1.16607 31.1114 3.35075C34.4004 5.53543 36.9638 8.64059 38.4776 12.2736C39.9913 15.9066 40.3874 19.9042 39.6157 23.761C38.844 27.6178 36.9392 31.1604 34.1422 33.941ZM20 28.7186C22.3575 28.7186 24.6184 27.7876 26.2854 26.1305C27.9524 24.4733 28.8889 22.2257 28.8889 19.8821C28.8889 17.5385 27.9524 15.2909 26.2854 13.6337C24.6184 11.9765 22.3575 11.0455 20 11.0455C17.6425 11.0455 15.3816 11.9765 13.7146 13.6337C12.0476 15.2909 11.1111 17.5385 11.1111 19.8821C11.1111 22.2257 12.0476 24.4733 13.7146 26.1305C15.3816 27.7876 17.6425 28.7186 20 28.7186ZM20 24.3004C18.8213 24.3004 17.6908 23.8349 16.8573 23.0063C16.0238 22.1777 15.5556 21.0539 15.5556 19.8821C15.5556 18.7103 16.0238 17.5865 16.8573 16.7579C17.6908 15.9293 18.8213 15.4638 20 15.4638C21.1787 15.4638 22.3092 15.9293 23.1427 16.7579C23.9762 17.5865 24.4444 18.7103 24.4444 19.8821C24.4444 21.0539 23.9762 22.1777 23.1427 23.0063C22.3092 23.8349 21.1787 24.3004 20 24.3004Z" fill="#163152"/>
</svg>
